<svg width="14" height="14" viewBox="0 0 14 14" fill="none" xmlns="http://www.w3.org/2000/svg">
<path d="M5.83335 2.62484V10.4998C5.83335 11.1298 5.57668 11.7073 5.16834 12.1273L5.14502 12.1507C5.09252 12.2032 5.03419 12.2557 4.98169 12.2965C4.80669 12.4482 4.60835 12.5648 4.40418 12.6465C4.34001 12.6757 4.27585 12.699 4.21169 12.7223C3.98419 12.7982 3.73919 12.8332 3.50002 12.8332C3.34252 12.8332 3.18503 12.8157 3.03336 12.7865C2.95753 12.769 2.88169 12.7515 2.80585 12.7282C2.71252 12.699 2.62502 12.6698 2.53752 12.629C2.53752 12.6232 2.53752 12.6232 2.53168 12.629C2.36835 12.5473 2.21086 12.454 2.06503 12.3432L2.05919 12.3373C1.98335 12.279 1.91336 12.2207 1.84919 12.1507C1.78503 12.0807 1.72085 12.0107 1.65668 11.9348C1.54585 11.789 1.45252 11.6315 1.37086 11.4682C1.37669 11.4623 1.37669 11.4623 1.37086 11.4623C1.37086 11.4623 1.37085 11.4565 1.36502 11.4507C1.33002 11.369 1.30085 11.2815 1.27168 11.194C1.24835 11.1182 1.23085 11.0423 1.21335 10.9665C1.18418 10.8148 1.16669 10.6573 1.16669 10.4998V2.62484C1.16669 1.74984 1.75002 1.1665 2.62502 1.1665H4.37502C5.25002 1.1665 5.83335 1.74984 5.83335 2.62484Z" stroke="#FF755C" stroke-width="0.875" stroke-linecap="round" stroke-linejoin="round"/>
<path d="M12.8333 9.62484V11.3748C12.8333 12.2498 12.25 12.8332 11.375 12.8332H3.5C3.73917 12.8332 3.98417 12.7982 4.21167 12.7223C4.27583 12.699 4.33999 12.6757 4.40416 12.6465C4.60833 12.5648 4.80667 12.4482 4.98167 12.2965C5.03417 12.2557 5.0925 12.2032 5.145 12.1507L5.16832 12.1273L9.135 8.1665H11.375C12.25 8.1665 12.8333 8.74984 12.8333 9.62484Z" stroke="#FF755C" stroke-width="0.875" stroke-linecap="round" stroke-linejoin="round"/>
<path d="M2.80578 12.7285C2.45578 12.6235 2.12329 12.431 1.84912 12.151C1.56912 11.8768 1.37661 11.5443 1.27161 11.1943C1.49911 11.9235 2.07661 12.501 2.80578 12.7285Z" stroke="#FF755C" stroke-width="0.875" stroke-linecap="round" stroke-linejoin="round"/>
<path d="M10.7158 6.58572L9.13495 8.16656L5.16827 12.1274C5.57661 11.7074 5.83328 11.1299 5.83328 10.4999V4.86489L7.41411 3.28406C8.03244 2.66573 8.86078 2.66573 9.47912 3.28406L10.7158 4.52073C11.3341 5.13906 11.3341 5.96739 10.7158 6.58572Z" stroke="#FF755C" stroke-width="0.875" stroke-linecap="round" stroke-linejoin="round"/>
<path d="M3.50002 11.0832C3.82219 11.0832 4.08335 10.822 4.08335 10.4998C4.08335 10.1777 3.82219 9.9165 3.50002 9.9165C3.17785 9.9165 2.91669 10.1777 2.91669 10.4998C2.91669 10.822 3.17785 11.0832 3.50002 11.0832Z" stroke="#FF755C" stroke-width="0.875" stroke-linecap="round" stroke-linejoin="round"/>
</svg>
